<?xml version="1.0" encoding="UTF-8" standalone="no"?>
<svg width="10px" height="16px" viewBox="0 0 10 16" version="1.1" xmlns="http://www.w3.org/2000/svg" xmlns:xlink="http://www.w3.org/1999/xlink" xmlns:sketch="http://www.bohemiancoding.com/sketch/ns">
    <title>Expand</title>
    <g id="Page-1" stroke="none" stroke-width="1" fill="none" fill-rule="evenodd" sketch:type="MSPage">
        <path d="M0,4.52159357 C1.65268522,3.01372615 3.30615445,1.50585872 4.96040768,0 C6.63034104,1.49447606 8.29792238,2.99029126 9.96707174,4.48543689 C8.87573501,4.49012387 7.78439828,4.49280214 6.69306154,4.49815869 C6.70482164,6.82892534 6.71579773,9.15902243 6.72755782,11.4897891 C7.81889455,11.4864412 8.90944728,11.4817543 10,11.4784064 C8.34731478,12.9862739 6.69384555,14.4934717 5.03959232,16 C3.37044296,14.5055239 1.70207762,13.0103783 0.034496276,11.5145631 C1.125049,11.5098761 2.21638573,11.5065283 3.30693846,11.5025109 C3.29674637,9.17174422 3.28498628,6.84097757 3.27322619,4.51021091 C2.18188946,4.51288919 1.09055272,4.51757616 0,4.52159357 L0,4.52159357 Z" id="Shape" fill="#878787" sketch:type="MSShapeGroup"></path>
    </g>
</svg>