<?xml version="1.0" encoding="UTF-8" standalone="no"?>
<svg width="16px" height="15px" viewBox="0 0 16 15" version="1.1" xmlns="http://www.w3.org/2000/svg" xmlns:xlink="http://www.w3.org/1999/xlink" xmlns:sketch="http://www.bohemiancoding.com/sketch/ns">
    <title>Favorites Sell</title>
    <g id="Page-1" stroke="none" stroke-width="1" fill="none" fill-rule="evenodd" sketch:type="MSPage">
        <path d="M7.96734694,0 C8.80130612,1.64192825 9.61632653,3.29461883 10.4548571,4.93452915 C12.1306122,5.1867713 13.8102857,5.41345291 15.4873469,5.65896861 C15.6577959,5.68856502 15.8393469,5.67107623 16,5.74775785 C15.9190204,5.8103139 15.8537143,5.87085202 15.7916735,5.93139013 C15.381551,6.33834081 14.9622857,6.73587444 14.5345306,7.12331839 C13.6816327,7.94125561 12.8267755,8.75717489 11.9745306,9.57511211 C12.3075918,11.3818386 12.6138776,13.1946188 12.9371429,15.0033632 C11.2822857,14.1457399 9.62481633,13.2881166 7.96734694,12.4345291 C6.31706122,13.2813901 4.67395918,14.1430493 3.01910204,14.9818386 C3.32865306,13.179148 3.648,11.3778027 3.96016327,9.57511211 C3.06285714,8.71479821 2.16489796,7.8558296 1.26693878,6.99686099 C0.841795918,6.61345291 0.427102041,6.21793722 0.0222040816,5.81165919 L0,5.7208519 C1.82595918,5.45852018 3.65453061,5.20627803 5.47918367,4.93520179 C6.31836735,3.29529148 7.13338776,1.6426009 7.96734694,0 Z" id="Shape" fill="#878787" sketch:type="MSShapeGroup"></path>
    </g>
</svg>