<?xml version="1.0" encoding="UTF-8" standalone="no"?>
<svg width="16px" height="15px" viewBox="0 0 16 15" version="1.1" xmlns="http://www.w3.org/2000/svg" xmlns:xlink="http://www.w3.org/1999/xlink" xmlns:sketch="http://www.bohemiancoding.com/sketch/ns">
    <title>Favorites</title>
    <g id="Page-1" stroke="none" stroke-width="1" fill="none" fill-rule="evenodd" sketch:type="MSPage">
        <path d="M5.49879419,4.93548823 C6.32740649,3.29077505 7.14947883,1.6433645 7.97874513,0 C8.80801142,1.64403885 9.63008377,3.29144938 10.4586961,4.93548823 C12.3055794,5.20320087 14.1531167,5.46147277 16,5.72918541 C14.6651951,7.01177848 13.3271203,8.28965116 11.9916615,9.57156988 C12.3049253,11.3814962 12.6234212,13.1900737 12.936685,15 C11.2833844,14.146961 9.63204575,13.2918989 7.97874513,12.4388599 C6.32544449,13.2912247 4.67410585,14.146961 3.02080523,15 C3.33406907,13.1900737 3.65256488,11.3814962 3.96517472,9.57156988 C2.64475781,8.30313794 1.31976292,7.03875203 0,5.76897142 L0,5.72176768 C1.83314939,5.45877541 3.66629878,5.20050352 5.49879419,4.93548823 L5.49879419,4.93548823 L5.49879419,4.93548823 Z M6.63509127,5.7426705 C6.50968538,6.00312806 6.26335238,6.19308144 5.98510806,6.23153827 C4.99081851,6.38070411 3.99484941,6.51879906 3,6.66446884 C3.7014892,7.34678605 4.40689733,8.02502452 5.10950623,8.70675906 C5.32952638,8.91302746 5.44933379,9.23699703 5.38831039,9.54290356 C5.21923637,10.5287966 5.04736313,11.5141069 4.87884896,12.5 C5.7919606,12.0256992 6.70227299,11.5461543 7.61594448,11.0741842 C7.85499946,10.9483255 8.14612028,10.9489082 8.38517525,11.0747669 C9.29828688,11.546737 10.2085993,12.0256992 11.1211511,12.5 C10.9526369,11.5141069 10.7807636,10.5287966 10.6116897,9.54290356 C10.5512261,9.23874508 10.6687941,8.91652353 10.8871348,8.71025513 C11.5903035,8.02677256 12.2973912,7.34795141 13,6.66446884 C12.0045908,6.51821638 11.0075019,6.38070411 10.0126526,6.23095558 C9.73328858,6.19191608 9.48751542,5.99963199 9.36266937,5.73859176 C8.90695332,4.82669896 8.45515621,3.91247547 8.00000002,3 C7.54428397,3.91364082 7.09136716,4.82961236 6.63509127,5.7426705 L6.63509127,5.7426705 L6.63509127,5.7426705 Z" id="Shape" fill="#878787" sketch:type="MSShapeGroup"></path>
    </g>
</svg>