<?xml version="1.0" encoding="UTF-8" standalone="no"?>
<svg width="13px" height="16px" viewBox="0 0 13 16" version="1.1" xmlns="http://www.w3.org/2000/svg" xmlns:xlink="http://www.w3.org/1999/xlink" xmlns:sketch="http://www.bohemiancoding.com/sketch/ns">
    <title>Hide</title>
    <g id="Page-1" stroke="none" stroke-width="1" fill="none" fill-rule="evenodd" sketch:type="MSPage">
        <path d="M1.7176827,1.86735452 C4.00648266,-0.344720162 7.76181,-0.597833488 10.3793306,1.14195695 C11.5265563,1.89935736 12.453379,3.05824787 12.8150659,4.42370212 C12.9987351,5.06278902 13.0043864,5.73387876 12.9987351,6.39430089 C12.9977931,9.5945843 12.9987351,12.7958375 12.9987351,15.9961209 C12.2960829,15.7148838 11.5953145,15.4268583 10.8926623,15.1465911 C10.7683325,15.0893739 10.6421188,15.1815034 10.5243822,15.2135061 C9.8575219,15.4840755 9.17935895,15.7265213 8.5143825,16 C7.84092902,15.727491 7.17030121,15.4491634 6.4996734,15.1718055 C5.87331456,15.4423749 5.24695573,15.7119746 4.62059689,15.9815742 C3.87932711,15.6886997 3.13617354,15.3997044 2.39678754,15.1000415 C1.59712039,15.3958254 0.800278925,15.6993673 0.00061177744,15.9951512 C0.00343745641,12.5698781 -0.00503958049,9.14460506 0.00532124239,5.71933201 C0.0109726003,4.25786926 0.683484195,2.85071434 1.7176827,1.86735452 L1.7176827,1.86735452 L1.7176827,1.86735452 Z M3.05803554,5.07178152 C2.4138134,5.23768823 1.86391367,5.99845779 2.02992114,6.78214866 C2.22139565,7.75357606 3.24007782,8.20872801 4.00880557,7.90856785 C4.62567421,7.71209939 5.13029917,6.9687937 4.96995106,6.21129861 C4.77941976,5.27698192 3.81355815,4.81091506 3.05803554,5.07178152 L3.05803554,5.07178152 L3.05803554,5.07178152 Z M9.08379217,5.06199013 C8.44035488,5.22240852 7.87711138,5.96011483 8.02334713,6.74911138 C8.18656509,7.68870478 9.1394561,8.17759892 9.89799508,7.94079082 C10.5536973,7.79565038 11.1244885,7.03939228 10.9763658,6.24275676 C10.8074871,5.29770695 9.84233114,4.82081691 9.08379217,5.06199013 L9.08379217,5.06199013 L9.08379217,5.06199013 Z" id="Shape" fill="#878787" sketch:type="MSShapeGroup"></path>
    </g>
</svg>