<?xml version="1.0" encoding="UTF-8" standalone="no"?>
<svg width="16px" height="16px" viewBox="0 0 16 16" version="1.1" xmlns="http://www.w3.org/2000/svg" xmlns:xlink="http://www.w3.org/1999/xlink" xmlns:sketch="http://www.bohemiancoding.com/sketch/ns">
    <title>Paperclip</title>
    <g id="Page-1" stroke="none" stroke-width="1" fill="none" fill-rule="evenodd" sketch:type="MSPage">
        <path d="M11.6455229,0.0753241329 C13.1779553,-0.309486002 14.7752526,0.834817804 15.2678202,2.26266591 C15.6529553,3.32393173 15.1482256,4.47431147 14.3779553,5.21962793 C11.0820094,8.53709628 7.75971206,11.8302608 4.45768503,15.1436786 C3.21917152,16.7011469 0.427955304,15.6641849 0.340793142,13.7360836 C0.269847196,13.0130457 0.62863098,12.3244381 1.13944179,11.8363368 C3.50498233,9.47076717 5.87457693,7.10924818 8.23809044,4.74367856 C8.74687422,4.25962793 9.36106341,3.68038742 10.1252526,3.81405831 C11.2887661,3.98621021 12.0489013,5.54570388 11.1570094,6.45304565 C9.46646882,8.21507097 7.71309044,9.92646337 5.9698472,11.6358305 C5.61511747,12.1401343 4.94214449,11.3786153 5.43673909,11.0606406 C6.79890125,9.65304565 8.21376612,8.29405831 9.59214449,6.90469122 C9.98741476,6.48545072 10.4739013,6.1269697 10.7313337,5.59836211 C10.8630904,4.89355198 9.87998233,4.20494439 9.34687422,4.83886844 C6.85160395,7.20646337 4.47390125,9.69760261 2.01714449,12.1036786 C1.57119855,12.5330457 1.04822557,13.0454507 1.15768503,13.7300077 C1.28336071,14.9553241 3.08336071,15.5993748 3.87592828,14.5826659 C7.15160395,11.2996279 10.4374148,8.02469122 13.7151175,4.74165325 C14.2259283,4.23734945 14.7083607,3.55886844 14.582685,2.80140008 C14.3982256,1.85962793 13.5934958,1.11228616 12.6934958,0.84291907 C11.9597121,0.644438057 11.2360634,1.05152666 10.7293067,1.55380515 C8.11646882,4.14215958 5.54417152,6.77709628 2.91917152,9.35329882 C2.51782017,9.73405831 1.97660395,8.9948178 2.44687422,8.70519755 C4.86917152,6.25456464 7.3198472,3.82823553 9.74619855,1.38165325 C10.2874148,0.834817804 10.8793067,0.277855778 11.6455229,0.0753241329 C11.6455229,0.0753241329 10.8793067,0.277855778 11.6455229,0.0753241329 L11.6455229,0.0753241329 L11.6455229,0.0753241329 Z" id="Shape" fill="#898989" sketch:type="MSShapeGroup"></path>
    </g>
</svg>