<?xml version="1.0" encoding="UTF-8" standalone="no"?>
<svg width="16px" height="15px" viewBox="0 0 16 15" version="1.1" xmlns="http://www.w3.org/2000/svg" xmlns:xlink="http://www.w3.org/1999/xlink" xmlns:sketch="http://www.bohemiancoding.com/sketch/ns">
    <title>Replay</title>
    <g id="Page-1" stroke="none" stroke-width="1" fill="none" fill-rule="evenodd" sketch:type="MSPage">
        <path d="M7.13908629,1.04100671 C9.28893401,0.861275168 11.5297462,1.35248322 13.3368528,2.64986577 C14.4016244,3.42463087 15.3137056,4.50651007 15.7384772,5.82832215 C16.195736,7.21208054 16.0276142,8.79651007 15.3413198,10.0598658 C14.5413198,11.5753691 13.1508629,12.6354362 11.6629442,13.2636242 C9.12893401,14.3315436 6.18314721,14.234698 3.72548223,12.9704698 C2.76060914,13.2950336 1.83416586,13.5706626 0.82856121,13.8022008 C0.538626251,13.8689577 0.232828364,13.9391227 0.000812182741,13.9991275 C0.0782439729,13.7368498 0.131186549,13.5260139 0.232828365,13.2636246 C0.540926377,12.5126894 0.816243655,11.6661074 1.21177665,10.9122819 C0.448324873,9.92724832 -0.0227411168,8.65865772 0.021928934,7.36738255 C0.0519796954,5.81610738 0.801624365,4.36167785 1.86071066,3.34 C3.30233503,1.94228188 5.22314721,1.21375839 7.13908629,1.04100671 C7.13908629,1.04100671 5.22314721,1.21375839 7.13908629,1.04100671 L7.13908629,1.04100671 L7.13908629,1.04100671 Z M6.45441624,2.4509396 C4.89177665,2.74060403 3.34050761,3.4647651 2.26761421,4.75080537 C1.49116751,5.6747651 1.06152284,6.97738255 1.30761421,8.21543624 C1.48060914,9.20919463 2.06050761,10.0450336 2.71593909,10.7412752 C2.45116751,11.2281208 2.18639594,11.7149664 1.92568528,12.2044295 C2.56162437,11.9932886 3.1951269,11.7742953 3.83106599,11.5648993 C6.20832487,12.9565101 9.19390863,13.0620805 11.6523858,11.8467114 C12.7431472,11.3040268 13.76,10.4769128 14.3358376,9.32087248 C14.8052792,8.39865772 14.9132995,7.26704698 14.5843655,6.27241611 C14.1782741,5.00731544 13.2174619,4.03711409 12.1486294,3.40020134 C10.426802,2.39248322 8.37847716,2.11067114 6.45441624,2.4509396 C6.45441624,2.4509396 8.37847716,2.11067114 6.45441624,2.4509396 L6.45441624,2.4509396 L6.45441624,2.4509396 Z" id="Shape" fill="#878787" sketch:type="MSShapeGroup"></path>
    </g>
</svg>