<?xml version="1.0" encoding="UTF-8" standalone="no"?>
<svg width="18px" height="13px" viewBox="0 0 18 13" version="1.1" xmlns="http://www.w3.org/2000/svg" xmlns:xlink="http://www.w3.org/1999/xlink" xmlns:sketch="http://www.bohemiancoding.com/sketch/ns">
    <title>Source</title>
    <g id="Page-1" stroke="none" stroke-width="1" fill="none" fill-rule="evenodd" sketch:type="MSPage">
        <g id="imgsrc" sketch:type="MSLayerGroup" fill="#878787">
            <path d="M0,0 L18,0 L18,13 L0,13 L0,0 L0,0 Z M1.125,1.16631376 C1.12939126,4.72235345 1.12939126,8.27764655 1.125,11.8336862 C6.37475604,11.8411522 11.625244,11.8411522 16.875,11.8336862 C16.8706087,8.27764655 16.8706087,4.72235345 16.875,1.16631376 C11.625244,1.15884779 6.37475604,1.15884779 1.125,1.16631376 L1.125,1.16631376 Z" id="Shape" sketch:type="MSShapeGroup"></path>
            <path d="M6.08916908,4.19310662 C6.2422314,5.06212197 5.61921992,5.9362567 4.81803432,6.07831959 C3.97977894,6.27797554 3.04825121,5.63549292 2.92508387,4.71528374 C2.78039214,3.90258161 3.31252287,3.06940195 4.04793951,2.86078707 C4.91967727,2.5574636 5.96361014,3.2076253 6.08916908,4.19310662 Z" id="Shape" sketch:type="MSShapeGroup"></path>
            <path d="M11.7960526,4.42411921 C12.0281377,4.1844781 12.2479675,3.93161541 12.4969037,3.71428571 C13.6956271,5.00008422 14.9050739,6.27348749 16.109159,7.55350155 C16.2470314,7.66257957 16.2079675,7.86338229 16.217159,8.02286758 C16.2117973,9.01448596 16.2186909,10.0069307 16.2133292,10.9993754 C11.4100101,11.0010281 6.60592498,11.0010281 1.80183987,10.9968964 C1.8156271,10.8109679 1.74975476,10.5804167 1.91443561,10.4515063 C2.69341434,9.6334211 3.46013774,8.79963531 4.24524413,7.98816094 C4.93843561,8.70956331 5.615542,9.44749266 6.30643561,10.1713741 C8.135542,8.2542452 9.96694625,6.34042173 11.7960526,4.42411921 L11.7960526,4.42411921 Z" id="Shape" sketch:type="MSShapeGroup"></path>
        </g>
    </g>
</svg>